<svg width="30" height="35" viewBox="0 0 30 35" fill="none" xmlns="http://www.w3.org/2000/svg">
<path d="M8.90625 16.625C8.53329 16.625 8.1756 16.7633 7.91188 17.0094C7.64816 17.2556 7.5 17.5894 7.5 17.9375C7.5 18.2856 7.64816 18.6194 7.91188 18.8656C8.1756 19.1117 8.53329 19.25 8.90625 19.25H21.0938C21.4667 19.25 21.8244 19.1117 22.0881 18.8656C22.3518 18.6194 22.5 18.2856 22.5 17.9375C22.5 17.5894 22.3518 17.2556 22.0881 17.0094C21.8244 16.7633 21.4667 16.625 21.0938 16.625H8.90625ZM8.90625 21.4375C8.53329 21.4375 8.1756 21.5758 7.91188 21.8219C7.64816 22.0681 7.5 22.4019 7.5 22.75C7.5 23.0981 7.64816 23.4319 7.91188 23.6781C8.1756 23.9242 8.53329 24.0625 8.90625 24.0625H21.0938C21.4667 24.0625 21.8244 23.9242 22.0881 23.6781C22.3518 23.4319 22.5 23.0981 22.5 22.75C22.5 22.4019 22.3518 22.0681 22.0881 21.8219C21.8244 21.5758 21.4667 21.4375 21.0938 21.4375H8.90625ZM8.90625 26.25C8.53329 26.25 8.1756 26.3883 7.91188 26.6344C7.64816 26.8806 7.5 27.2144 7.5 27.5625C7.5 27.9106 7.64816 28.2444 7.91188 28.4906C8.1756 28.7367 8.53329 28.875 8.90625 28.875H21.0938C21.4667 28.875 21.8244 28.7367 22.0881 28.4906C22.3518 28.2444 22.5 27.9106 22.5 27.5625C22.5 27.2144 22.3518 26.8806 22.0881 26.6344C21.8244 26.3883 21.4667 26.25 21.0938 26.25H8.90625ZM17.9719 1.0255L28.9012 11.2245C29.6046 11.8807 29.9998 12.7708 30 13.699V31.5C30 32.4283 29.6049 33.3185 28.9016 33.9749C28.1984 34.6312 27.2446 35 26.25 35H3.75C2.75544 35 1.80161 34.6312 1.09835 33.9749C0.395088 33.3185 0 32.4283 0 31.5V3.5C0 2.57174 0.395088 1.6815 1.09835 1.02513C1.80161 0.368749 2.75544 0 3.75 0H15.3225C15.375 0 15.4256 0.00699995 15.4762 0.0122499C15.5137 0.0174999 15.5512 0.0227499 15.5869 0.0244999C15.99 0.0507499 16.3875 0.1225 16.7569 0.266C16.8638 0.308 16.9669 0.364 17.0681 0.41825L17.1619 0.469L17.25 0.511C17.3025 0.53329 17.3533 0.559021 17.4019 0.588C17.5481 0.68075 17.6794 0.791 17.8125 0.903C17.8343 0.921275 17.8568 0.938787 17.88 0.9555C17.9122 0.976966 17.9429 1.00035 17.9719 1.0255ZM26.25 32.375C26.4986 32.375 26.7371 32.2828 26.9129 32.1187C27.0887 31.9546 27.1875 31.7321 27.1875 31.5V14H18.75C17.7554 14 16.8016 13.6313 16.0984 12.9749C15.3951 12.3185 15 11.4283 15 10.5V2.625H3.75C3.50136 2.625 3.2629 2.71719 3.08709 2.88128C2.91127 3.04538 2.8125 3.26794 2.8125 3.5V31.5C2.8125 31.7321 2.91127 31.9546 3.08709 32.1187C3.2629 32.2828 3.50136 32.375 3.75 32.375H26.25ZM25.0837 11.375L17.8125 4.58675V10.5C17.8125 10.7321 17.9113 10.9546 18.0871 11.1187C18.2629 11.2828 18.5014 11.375 18.75 11.375H25.0837Z" fill="url(#paint0_linear_6_288)"/>
<defs>
<linearGradient id="paint0_linear_6_288" x1="0" y1="0" x2="27.5174" y2="36.8537" gradientUnits="userSpaceOnUse">
<stop stop-color="#F53844"/>
<stop offset="1" stop-color="#43378F"/>
</linearGradient>
</defs>
</svg>
