<svg width="35" height="24" viewBox="0 0 35 24" fill="none" xmlns="http://www.w3.org/2000/svg">
<path d="M29.6296 1.94341C27.3984 1.04522 25.0067 0.381341 22.5057 0.00384031C22.4834 2.35376e-05 22.4603 0.0024832 22.4397 0.0108792C22.4191 0.0192752 22.4019 0.0331921 22.3905 0.0507025C22.0842 0.53104 21.743 1.15717 21.5038 1.65183C18.8512 1.29806 16.1545 1.29806 13.5019 1.65183C13.2355 1.10362 12.9352 0.569082 12.6021 0.0507025C12.5909 0.0329765 12.5738 0.0187448 12.5532 0.00990652C12.5326 0.00106828 12.5095 -0.00195625 12.4869 0.00123674C9.98736 0.378737 7.59569 1.04262 5.36299 1.94211C5.34378 1.9493 5.32749 1.96157 5.31632 1.97726C0.777992 7.93266 -0.465965 13.741 0.145076 19.4764C0.146776 19.4904 0.151661 19.504 0.159433 19.5163C0.167205 19.5286 0.177702 19.5394 0.190284 19.548C2.83919 21.2694 5.79369 22.5808 8.93007 23.4271C8.95193 23.4331 8.97532 23.4331 8.99717 23.4271C9.01902 23.421 9.03833 23.4092 9.05257 23.3933C9.72632 22.5862 10.3271 21.7336 10.8405 20.838C10.8711 20.7859 10.8419 20.7234 10.7807 20.7026C9.83861 20.3859 8.92582 20.0038 8.05069 19.5597C8.03497 19.5517 8.02172 19.5403 8.01213 19.5266C8.00254 19.5129 7.99692 19.4973 7.99576 19.4811C7.99461 19.465 7.99795 19.4489 8.0055 19.4342C8.01306 19.4195 8.02457 19.4067 8.03903 19.397C8.22278 19.2759 8.40653 19.1496 8.58152 19.0234C8.59728 19.012 8.61625 19.0048 8.63634 19.0025C8.65642 19.0002 8.67682 19.0029 8.69528 19.0104C14.4221 21.3066 20.6244 21.3066 26.2842 19.0104C26.3027 19.0025 26.3233 18.9994 26.3437 19.0015C26.3641 19.0035 26.3834 19.0107 26.3994 19.0221C26.5744 19.1496 26.7567 19.2759 26.9419 19.397C26.9565 19.4065 26.9682 19.4191 26.976 19.4337C26.9838 19.4482 26.9874 19.4643 26.9866 19.4804C26.9857 19.4965 26.9804 19.5122 26.9711 19.5261C26.9617 19.5399 26.9487 19.5514 26.9332 19.5597C26.0611 20.0075 25.154 20.3863 24.2017 20.7013C24.1871 20.706 24.1738 20.7135 24.1626 20.7232C24.1515 20.7329 24.1428 20.7446 24.1372 20.7576C24.1315 20.7705 24.129 20.7844 24.1298 20.7982C24.1306 20.8121 24.1348 20.8256 24.1419 20.838C24.6669 21.7323 25.2678 22.5836 25.9284 23.392C25.9421 23.4086 25.9613 23.4209 25.9832 23.4275C26.0051 23.434 26.0287 23.4343 26.0509 23.4284C29.1926 22.5844 32.152 21.2725 34.8038 19.548C34.8167 19.5399 34.8276 19.5294 34.8356 19.5173C34.8437 19.5052 34.8487 19.4917 34.8505 19.4777C35.5796 12.8467 33.6284 7.08523 29.6748 1.97986C29.6651 1.96327 29.6491 1.95034 29.6296 1.94341ZM11.6965 15.9838C9.97277 15.9838 8.5509 14.5923 8.5509 12.8857C8.5509 11.1779 9.94507 9.78762 11.6965 9.78762C13.4611 9.78762 14.8699 11.1896 14.8421 12.8857C14.8421 14.5936 13.448 15.9838 11.6965 15.9838ZM23.3267 15.9838C21.6015 15.9838 20.1811 14.5923 20.1811 12.8857C20.1811 11.1779 21.5738 9.78762 23.3267 9.78762C25.0913 9.78762 26.5 11.1896 26.4723 12.8857C26.4723 14.5936 25.0928 15.9838 23.3267 15.9838Z" fill="#EEEEEE"/>
</svg>
