<svg width="40" height="30" viewBox="0 0 40 30" fill="none" xmlns="http://www.w3.org/2000/svg">
<path d="M32.45 4.99219L29.475 1.27344C28.8166 0.457673 27.927 -9.05154e-06 27 1.3426e-10H12.825C11.9 1.3426e-10 11.0063 0.460938 10.35 1.27344L7.375 4.99219H0V24.9688H4C5.1 24.9688 5.9875 23.8594 5.99375 22.4922H6.5625L11.85 28.4609C13.7812 30.4219 16.4625 30.4688 18.45 28.7578C19.2313 29.6016 20.075 30 21.0188 30C22.1563 30 23.225 29.4219 24.0688 28.125C25.45 28.8047 27.0813 28.3281 28.0688 26.8125L29.7063 24.2891C30.0563 23.75 30.275 23.1328 30.3875 22.4922H34.0062C34.0125 23.8594 34.9062 24.9688 36 24.9688H40V4.99219H32.45ZM3 22.4688C2.45 22.4688 2 21.9062 2 21.2188C2 20.5312 2.45 19.9688 3 19.9688C3.55 19.9688 4 20.5312 4 21.2188C4 21.9141 3.55 22.4688 3 22.4688ZM27.375 21.9297L25.7438 24.4453C25.5688 24.7109 25.2563 24.7578 25.0375 24.5391L23.5438 23.0234L21.6688 25.875C21.2938 26.4453 20.7313 26.25 20.5438 26.0625L18.2438 23.6016L17.2688 25.1016C16.4 26.4375 14.8188 26.6406 13.8125 25.6172L7.73125 18.7422H6V8.73438H8.61875L12.475 3.92187C12.6 3.85937 12.7063 3.80469 12.8313 3.74219H16.375L13.9563 6.51562C12.1188 8.61719 12.0125 12.1641 13.6813 14.4297C14.6063 15.6953 17.5063 17.6484 20.025 14.7734L20.5375 14.1875L27.3 21.0469C27.5125 21.2656 27.5438 21.6641 27.375 21.9297ZM34 18.7422H29.675C29.5313 18.5234 29.3688 18.3203 29.1938 18.1406L22.775 11.625L23.5563 10.7344C23.9625 10.2656 23.9938 9.47656 23.6188 8.96875L22.9375 8.05469C22.5625 7.54688 21.9313 7.51563 21.525 7.97656L18.075 11.9297C17.4813 12.6094 16.4688 12.6641 15.9125 11.9297C15.3313 11.1562 15.3813 9.96875 15.9875 9.28125L20.0875 4.58594C20.55 4.05469 21.15 3.76562 21.775 3.76562L27.0063 3.75C27.1375 3.75 27.2625 3.8125 27.35 3.92969L31.2063 8.74219H34V18.7422ZM37 22.4688C36.45 22.4688 36 21.9062 36 21.2188C36 20.5312 36.45 19.9688 37 19.9688C37.55 19.9688 38 20.5312 38 21.2188C38 21.9141 37.55 22.4688 37 22.4688Z" fill="url(#paint0_linear_6_285)"/>
<defs>
<linearGradient id="paint0_linear_6_285" x1="0" y1="0" x2="44.2133" y2="21.2224" gradientUnits="userSpaceOnUse">
<stop stop-color="#43378F"/>
<stop offset="1" stop-color="#F53844"/>
</linearGradient>
</defs>
</svg>
