<svg width="35" height="35" viewBox="0 0 35 35" fill="none" xmlns="http://www.w3.org/2000/svg">
<path d="M19.25 31.3158V10.7395C20.7375 10.1868 21.9275 8.93421 22.4525 7.36842H28L23.135 19.3237C22.8375 20.0421 22.7325 20.8711 22.9425 21.6263C23.625 24.0211 26.0225 25.7895 28.875 25.7895C31.7275 25.7895 34.1425 24.0211 34.8075 21.6263C35.0175 20.8711 34.9125 20.0421 34.615 19.3237L29.75 7.36842H31.5C32.4625 7.36842 33.25 6.53947 33.25 5.52632C33.25 4.51316 32.4625 3.68421 31.5 3.68421H22.4525C21.735 1.52895 19.7925 0 17.5 0C15.2075 0 13.265 1.52895 12.5475 3.68421H3.5C2.5375 3.68421 1.75 4.51316 1.75 5.52632C1.75 6.53947 2.5375 7.36842 3.5 7.36842H5.25L0.385 19.3237C0.0875 20.0421 -0.0175002 20.8711 0.1925 21.6263C0.8575 24.0211 3.2725 25.7895 6.125 25.7895C8.9775 25.7895 11.3925 24.0211 12.0575 21.6263C12.2675 20.8711 12.1625 20.0421 11.865 19.3237L7 7.36842H12.5475C13.0725 8.93421 14.2625 10.1868 15.75 10.7395V31.3158H19.25ZM15.75 31.3158H1.75C0.7875 31.3158 0 32.1447 0 33.1579C0 34.1711 0.7875 35 1.75 35H33.25C34.2125 35 35 34.1711 35 33.1579C35 32.1447 34.2125 31.3158 33.25 31.3158H19.25H15.75ZM32.1475 20.2632H25.6025L28.875 12.2316L32.1475 20.2632ZM9.3975 20.2632H2.8525L6.125 12.2316L9.3975 20.2632ZM17.5 7.36842C16.5375 7.36842 15.75 6.53947 15.75 5.52632C15.75 4.51316 16.5375 3.68421 17.5 3.68421C18.4625 3.68421 19.25 4.51316 19.25 5.52632C19.25 6.53947 18.4625 7.36842 17.5 7.36842Z" fill="url(#paint0_linear_6_283)"/>
<defs>
<linearGradient id="paint0_linear_6_283" x1="0" y1="0" x2="36.6775" y2="32.753" gradientUnits="userSpaceOnUse">
<stop stop-color="#F53844"/>
<stop offset="1" stop-color="#43378F"/>
</linearGradient>
</defs>
</svg>
