<svg width="21" height="17" viewBox="0 0 21 17" fill="none" xmlns="http://www.w3.org/2000/svg">
<path d="M2.47084 3.95171C2.4836 3.83403 2.46651 3.71521 2.42093 3.60476C2.37534 3.4943 2.30254 3.39529 2.20834 3.31562L0.262501 1.1241V0.796387H6.3021L10.9709 10.3716L15.075 0.796387H20.8334V1.1241L19.1698 2.61379C19.0993 2.6643 19.0449 2.73163 19.0125 2.80859C18.98 2.88554 18.9707 2.96924 18.9855 3.05074V14.0074C18.9707 14.0889 18.98 14.1726 19.0125 14.2495C19.0449 14.3265 19.0993 14.3938 19.1698 14.4443L20.7948 15.935V16.2637H12.624V15.936L14.3073 14.4086C14.4729 14.2539 14.4729 14.2085 14.4729 13.9726V5.11563L9.79377 16.2269H9.16252L3.71459 5.11563V12.5631C3.6698 12.8754 3.78126 13.1915 4.01667 13.4177L6.20522 15.9002V16.2269H0V15.9002L2.1875 13.4177C2.30325 13.3056 2.38915 13.17 2.43834 13.0216C2.48754 12.8732 2.49867 12.7162 2.47084 12.5631V3.95171Z" fill="white"/>
</svg>
