<svg width="31" height="23" viewBox="0 0 31 23" fill="none" xmlns="http://www.w3.org/2000/svg">
<path d="M21.3999 7.80597C21.6016 7.80597 21.8032 7.81208 22.0015 7.82123C21.1675 3.89496 16.5908 0.893066 11.0674 0.893066C4.95605 0.893066 0 4.57222 0 9.11168C0 11.5858 1.49023 13.8159 3.82471 15.3229C3.92099 15.3836 3.99952 15.4641 4.05365 15.5575C4.10778 15.651 4.13594 15.7547 4.13574 15.8599C4.13574 15.9331 4.11865 16.0002 4.09814 16.0703C3.91016 16.6896 3.61279 17.6811 3.59912 17.7269C3.5752 17.8062 3.54102 17.8855 3.54102 17.9679C3.54102 18.1479 3.70508 18.2974 3.91016 18.2974C3.98877 18.2974 4.05371 18.2699 4.12207 18.2364L6.54541 16.9886C6.72656 16.894 6.92139 16.8361 7.1333 16.8361C7.24268 16.8361 7.35205 16.8513 7.45801 16.8788C8.58936 17.1686 9.80957 17.3303 11.0708 17.3303C11.2759 17.3303 11.4775 17.3272 11.6792 17.3181C11.4365 16.6774 11.3066 16.0032 11.3066 15.3046C11.3066 11.1618 15.8252 7.80597 21.3999 7.80597ZM14.7588 5.16711C15.5723 5.16711 16.2354 5.7559 16.2354 6.48197C16.2354 7.20804 15.5757 7.79682 14.7588 7.79682C13.9453 7.79682 13.2822 7.20804 13.2822 6.48197C13.2822 5.7559 13.9453 5.16711 14.7588 5.16711ZM7.37939 7.79682C6.56592 7.79682 5.90283 7.20804 5.90283 6.48197C5.90283 5.7559 6.5625 5.16711 7.37939 5.16711C8.19629 5.16711 8.85596 5.7559 8.85596 6.48197C8.85596 7.20804 8.19287 7.79682 7.37939 7.79682ZM27.436 20.4756C29.3809 19.2187 30.6216 17.3638 30.6216 15.2985C30.6216 11.5156 26.4927 8.44968 21.3965 8.44968C16.3037 8.44968 12.1714 11.5156 12.1714 15.2985C12.1714 19.0814 16.3003 22.1474 21.3965 22.1474C22.4492 22.1474 23.4678 22.0131 24.4077 21.7721C24.4966 21.7477 24.5854 21.7355 24.6777 21.7355C24.8555 21.7355 25.0161 21.7843 25.1665 21.8606L27.1865 22.8978C27.2446 22.9283 27.2993 22.9497 27.3643 22.9497C27.4048 22.95 27.445 22.9431 27.4825 22.9295C27.52 22.9159 27.5542 22.8958 27.583 22.8704C27.6115 22.8447 27.634 22.8142 27.6493 22.7807C27.6645 22.7472 27.6722 22.7113 27.6719 22.6751C27.6719 22.608 27.6411 22.5409 27.624 22.4738C27.6138 22.4372 27.3643 21.6104 27.207 21.0918C27.1899 21.0339 27.1763 20.9759 27.1763 20.9179C27.1797 20.7379 27.2822 20.5762 27.436 20.4756ZM18.3271 14.2064C17.647 14.2064 17.0967 13.7152 17.0967 13.1112C17.0967 12.5071 17.647 12.016 18.3271 12.016C19.0073 12.016 19.5576 12.5071 19.5576 13.1112C19.5576 13.7152 19.0039 14.2064 18.3271 14.2064ZM24.4761 14.2064C23.7959 14.2064 23.2456 13.7152 23.2456 13.1112C23.2456 12.5071 23.7959 12.016 24.4761 12.016C25.1562 12.016 25.7065 12.5071 25.7065 13.1112C25.7049 13.4017 25.5747 13.6799 25.3441 13.8851C25.1136 14.0902 24.8016 14.2057 24.4761 14.2064Z" fill="#EEEEEE"/>
</svg>
