<svg width="180" height="21" viewBox="0 0 180 21" fill="none" xmlns="http://www.w3.org/2000/svg">
<path d="M159.652 17.8827C160.617 18.8984 165.92 23.7663 174.244 18.1167C180.264 13.4604 180.113 3.36541 179.535 0.3169C179.333 0.76056 172.342 15.9688 159.652 17.8827ZM179.534 0.31432C179.46 0.284066 171.716 -0.764677 164.061 4.13319C159.307 7.17459 158.679 11.626 158.896 14.5922C170.024 13.3551 179.282 0.663086 179.534 0.31432Z" fill="#97C554"/>
<path d="M179.534 0.31432C179.46 0.284066 171.716 -0.764677 164.061 4.13319C159.307 7.17459 158.679 11.626 158.896 14.5922C170.024 13.3551 179.282 0.663086 179.534 0.31432Z" fill="#709B30"/>
<path d="M12.6159 17.289H3.94693V12.7026H12.6159C14.7832 12.7026 15.8903 13.7322 15.8903 15.066C15.8903 16.353 14.8067 17.289 12.6159 17.289ZM12.3332 10.2456H3.94693V6.38464H12.3332C14.6183 6.38464 15.5134 7.18024 15.5134 8.28004C15.5134 9.28624 14.4769 10.2456 12.3332 10.2456ZM14.5476 11.4156C18.1989 11.2986 19.5181 9.49684 19.5181 7.53124C19.5181 5.37844 17.7985 3.60004 13.6053 3.60004H0.201355V20.0268H14.0058C17.4451 20.0268 20.0128 18.5994 20.0128 15.534C20.0128 13.3578 18.5759 11.5092 14.5476 11.4156ZM24.4367 3.60004V20.0268H28.1823V3.60004H24.4367ZM43.3718 6.71224H51.6167V3.60004H31.3812V6.71224H39.6262V20.0268H43.3718V6.71224ZM54.8157 3.60004V20.0268H58.5612V13.6152H67.348V10.9242H58.5612V6.43144H72.8368V3.60004H54.8157ZM75.8708 3.60004V20.0268H79.6164V3.60004H75.8708ZM88.3983 7.60144L100.813 20.0268H105.053V3.60004H101.355V15.4404L89.4348 3.60004H84.6763V20.0268H88.3983V7.60144ZM110.113 3.60004V20.0268H128.44V17.2656H113.859V12.7494H122.598V10.1988H113.859V6.43144H128.44V3.60004H110.113ZM153.524 3.60004H148.577L142.264 9.37984L135.997 3.60004H130.98L139.79 11.6964L130.65 20.0268H135.597L142.217 13.9662L148.812 20.0268H153.854L144.69 11.673L153.524 3.60004Z" fill="#DDDDDD"/>
</svg>
