<svg width="180" height="31" viewBox="0 0 180 31" fill="none" xmlns="http://www.w3.org/2000/svg">
<path d="M26.164 10.1411C22.4367 7.14569 18.5103 5.75626 13.5163 5.05251C9.02895 4.42095 6.31481 3.53676 2.3703 0.812011L0 4.34877C3.52835 6.96524 6.83956 8.26447 11.3088 9.04038C14.4753 9.58173 16.9542 9.61782 20.2473 11.3682C19.5958 12.2163 18.9987 13.4433 18.6551 14.2733C17.0084 13.2989 14.5838 12.5591 11.345 12.523V16.7275C12.9192 16.7996 14.3305 16.98 16.2304 17.8101C18.5464 18.8205 20.1749 20.3183 20.1749 20.3183C22.0204 13.8403 26.164 10.1411 26.164 10.1411ZM45.6333 9.13061C50.4464 8.44492 53.9024 6.96524 57.4307 4.34877L55.0604 0.812011C51.1158 3.53676 48.4017 4.42095 43.9143 5.05251C38.9203 5.75626 34.813 7.25396 31.0855 10.2494C25.2955 14.8148 22.5815 21.5093 22.5815 28.258V30.3692H34.4329V28.258C34.3788 22.0506 39.0833 19.0371 39.0833 19.0371C40.7659 17.9003 43.281 16.6373 46.1037 16.7455V12.541C42.9372 12.505 39.6623 13.5155 36.5682 15.6448C33.1665 18.171 31.0314 21.9604 30.4704 26.1467H26.9783C28.8963 10.8809 42.9553 9.50954 45.6333 9.13061ZM83.5585 14.8508C86.0375 13.4252 87.2859 11.3501 87.2859 8.6434C87.2859 6.5863 86.4174 4.70967 84.8431 3.3924C83.1786 2.00295 80.8444 1.26313 78.094 1.26313H67.1833V30.5496H78.7635C81.8395 30.5496 84.427 29.7557 86.2184 28.2218C88.0097 26.7061 88.9686 24.5768 88.9686 22.0326C88.9686 18.189 86.1822 15.6267 83.5585 14.8508ZM71.2726 4.85401H78.456C81.6767 4.85401 83.3956 6.38782 83.3956 9.27496C83.3956 12.1621 81.6948 13.6959 78.456 13.6959H71.2726V4.85401ZM79.8492 26.7782H71.2726V17.2688H79.8492C83.1604 17.2688 85.0783 19.0011 85.0783 22.0146C85.0783 25.0461 83.1604 26.7782 79.8492 26.7782ZM107.117 23.6385C105.362 26.2009 103.136 27.6083 100.893 27.6083C98.1785 27.6083 96.6767 26.0926 96.6767 23.3498V9.58173H92.895V24.0175C92.895 26.1287 93.5103 27.879 94.6863 29.07C95.8806 30.297 97.6719 30.9467 99.8432 30.9467C103.01 30.9467 105.724 29.3226 107.117 27.879V30.5496H110.881V9.59977H107.117V23.6385ZM115.893 30.5496H119.584V0H115.893V30.5496ZM150.489 18.0988C146.96 17.1606 145.042 16.3485 145.042 14.7605C145.042 13.6418 146.146 12.4328 148.553 12.4328C150.923 12.4328 152.442 13.6598 152.732 15.8072V15.8432H156.459V15.789C156.098 11.5666 153.202 9.14866 148.553 9.14866C146.562 9.14866 144.735 9.74413 143.414 10.8268C142.129 11.8734 141.423 13.2989 141.423 14.8148C141.423 17.9725 143.269 19.777 147.612 20.8596C151.665 21.8882 153.6 22.7183 153.6 24.5768C153.6 25.9843 152.298 27.5001 149.421 27.5001C146.472 27.5001 144.861 26.3995 144.246 23.9453V23.9093H140.682V23.9633C141.098 28.3302 144.337 30.9286 149.349 30.9286C151.665 30.9286 153.656 30.2609 155.121 28.9798C156.533 27.7527 157.292 26.0205 157.292 24.1258C157.292 21.1483 155.319 19.398 150.489 18.0988ZM172.816 9.18474C169.686 9.18474 166.791 10.7005 165.29 12.2523V0.0180402H161.526V30.5496H165.29V16.2583C166.9 14.0027 169.451 12.541 171.767 12.541C174.572 12.541 176.236 14.129 176.236 16.7996V30.5496H180V16.1139C180 11.8373 177.249 9.18474 172.816 9.18474ZM135.29 1.42552C133.878 1.42552 132.738 2.56234 132.738 3.96983C132.738 5.37732 133.878 6.51413 135.29 6.51413C136.701 6.51413 137.841 5.37732 137.841 3.96983C137.859 2.56234 136.701 1.42552 135.29 1.42552ZM124.596 30.5496H128.287V0H124.596V30.5496ZM133.408 30.5496H137.171V9.59977H133.408V30.5496Z" fill="black"/>
</svg>
