<svg width="180" height="32" viewBox="0 0 180 32" fill="none" xmlns="http://www.w3.org/2000/svg">
<path d="M36.3287 8.93379C29.7898 8.93379 24.6805 13.8739 24.6805 20.4872C24.6805 27.1006 29.6607 31.9984 36.3287 31.9984C42.9968 31.9984 48.0636 27.016 48.0636 20.4449C48.0636 13.9162 43.0834 8.93379 36.3287 8.93379ZM36.3729 27.2323C32.6491 27.2323 29.9205 24.3541 29.9205 20.4888C29.9205 16.5797 32.605 13.7031 36.3287 13.7031C40.0966 13.7031 42.8236 16.6236 42.8236 20.4888C42.8236 24.3541 40.0966 27.2323 36.3729 27.2323ZM49.4917 13.9601H52.7399V31.5707H57.9358V9.36308H49.4917V13.9601ZM11.6042 13.7015C14.3328 13.7015 16.4978 15.3764 17.3196 17.8676H22.8194C21.8227 12.5421 17.4062 8.93379 11.6483 8.93379C5.10929 8.93379 0 13.8739 0 20.4888C0 27.1038 4.98021 32 11.6483 32C17.2771 32 21.7803 28.3917 22.7769 23.0223H17.3196C16.5402 25.5135 14.3753 27.2323 11.6466 27.2323C7.8788 27.2323 5.23837 24.3541 5.23837 20.4888C5.24001 16.5797 7.83795 13.7015 11.6042 13.7015ZM148.217 18.3408L144.407 17.783C142.588 17.5261 141.289 16.9244 141.289 15.5065C141.289 13.9601 142.978 13.1877 145.272 13.1877C147.784 13.1877 149.387 14.2609 149.733 16.022H154.756C154.192 11.5551 150.728 8.93541 145.403 8.93541C139.903 8.93541 136.266 11.7274 136.266 15.6788C136.266 19.4579 138.649 21.6499 143.454 22.3361L147.264 22.8938C149.127 23.1508 150.166 23.8825 150.166 25.2566C150.166 27.0176 148.348 27.7478 145.836 27.7478C142.761 27.7478 141.029 26.5022 140.769 24.6126H135.66C136.137 28.9511 139.557 32 145.792 32C151.465 32 155.231 29.4226 155.231 24.998C155.231 21.0466 152.504 18.9847 148.217 18.3408ZM55.3379 0.214645C53.4327 0.214645 52.003 1.5887 52.003 3.47823C52.003 5.36775 53.4311 6.74181 55.3379 6.74181C57.243 6.74181 58.6727 5.36775 58.6727 3.47823C58.6727 1.5887 57.243 0.214645 55.3379 0.214645ZM131.59 16.9667C131.59 12.1567 128.646 8.93541 122.411 8.93541C116.522 8.93541 113.231 11.8998 112.581 16.4529H117.734C117.994 14.6918 119.38 13.2316 122.324 13.2316C124.966 13.2316 126.265 14.391 126.265 15.8089C126.265 17.6562 123.883 18.1278 120.938 18.4286C116.955 18.8579 112.019 20.2319 112.019 25.3867C112.019 29.382 115.007 31.9577 119.77 31.9577C123.494 31.9577 125.832 30.4113 127.002 27.9624C127.175 30.1528 128.82 31.5707 131.116 31.5707H134.147V26.9754H131.592V16.9667H131.59ZM126.481 22.5507C126.481 25.5151 123.883 27.7055 120.721 27.7055C118.772 27.7055 117.126 26.8892 117.126 25.172C117.126 22.9817 119.769 22.38 122.193 22.1231C124.531 21.9084 125.83 21.393 126.481 20.4043V22.5507ZM98.8984 8.93379C95.9965 8.93379 93.5718 10.1371 91.8398 12.1551V0H86.6439V31.5707H91.7532V28.6502C93.4852 30.7544 95.954 32 98.8984 32C105.133 32 109.854 27.1038 109.854 20.4888C109.854 13.8739 105.047 8.93379 98.8984 8.93379ZM98.119 27.2323C94.3953 27.2323 91.6666 24.3541 91.6666 20.4888C91.6666 16.6236 94.4377 13.7031 98.1615 13.7031C101.929 13.7031 104.57 16.5813 104.57 20.4888C104.57 24.3541 101.843 27.2323 98.119 27.2323ZM74.2163 8.93379C70.8389 8.93379 68.6299 10.3078 67.3309 12.2413V9.36308H62.1775V31.5691H67.3734V19.5002C67.3734 16.1065 69.5383 13.7015 72.7425 13.7015C75.7309 13.7015 77.5919 15.8057 77.5919 18.8562V31.5707H82.7878V18.4709C82.7895 12.8852 79.8893 8.93379 74.2163 8.93379ZM180 19.7587C180 13.4023 175.324 8.93541 169.044 8.93541C162.376 8.93541 157.483 13.9178 157.483 20.4888C157.483 27.4046 162.723 32 169.131 32C174.544 32 178.788 28.821 179.869 24.3118H174.456C173.677 26.2875 171.772 27.4046 169.216 27.4046C165.881 27.4046 163.37 25.3428 162.808 21.7344H179.998V19.7587H180ZM163.112 18.0399C163.935 14.9471 166.273 13.4446 168.958 13.4446C171.902 13.4446 174.154 15.1195 174.673 18.0399H163.112Z" fill="#0052FF"/>
</svg>
