<svg width="20" height="20" viewBox="0 0 20 20" fill="none" xmlns="http://www.w3.org/2000/svg">
<path d="M10 9.99998C10.4603 9.99998 10.8334 9.62688 10.8334 9.16665C10.8334 8.70641 10.4603 8.33331 10 8.33331C9.53978 8.33331 9.16669 8.70641 9.16669 9.16665C9.16669 9.62688 9.53978 9.99998 10 9.99998Z" fill="#EEEEEE"/>
<path d="M13.3333 9.99998C13.7936 9.99998 14.1667 9.62688 14.1667 9.16665C14.1667 8.70641 13.7936 8.33331 13.3333 8.33331C12.8731 8.33331 12.5 8.70641 12.5 9.16665C12.5 9.62688 12.8731 9.99998 13.3333 9.99998Z" fill="#EEEEEE"/>
<path d="M6.66671 9.99998C7.12694 9.99998 7.50004 9.62688 7.50004 9.16665C7.50004 8.70641 7.12694 8.33331 6.66671 8.33331C6.20647 8.33331 5.83337 8.70641 5.83337 9.16665C5.83337 9.62688 6.20647 9.99998 6.66671 9.99998Z" fill="#EEEEEE"/>
<path d="M15.8334 2.5H4.16669C3.50365 2.5 2.86776 2.76339 2.39892 3.23223C1.93008 3.70107 1.66669 4.33696 1.66669 5V17.5C1.66694 17.6477 1.70643 17.7926 1.7811 17.92C1.85578 18.0474 1.96297 18.1526 2.09169 18.225C2.21623 18.2956 2.35686 18.3329 2.50002 18.3333C2.64959 18.3333 2.79639 18.293 2.92502 18.2167L6.66669 15.95C6.80499 15.8677 6.96418 15.8271 7.12502 15.8333H15.8334C16.4964 15.8333 17.1323 15.5699 17.6011 15.1011C18.07 14.6323 18.3334 13.9964 18.3334 13.3333V5C18.3334 4.33696 18.07 3.70107 17.6011 3.23223C17.1323 2.76339 16.4964 2.5 15.8334 2.5ZM16.6667 13.3333C16.6667 13.5543 16.5789 13.7663 16.4226 13.9226C16.2663 14.0789 16.0544 14.1667 15.8334 14.1667H7.12502C6.66987 14.1663 6.22326 14.2902 5.83335 14.525L3.33335 16.025V5C3.33335 4.77899 3.42115 4.56702 3.57743 4.41074C3.73371 4.25446 3.94567 4.16667 4.16669 4.16667H15.8334C16.0544 4.16667 16.2663 4.25446 16.4226 4.41074C16.5789 4.56702 16.6667 4.77899 16.6667 5V13.3333Z" fill="#EEEEEE"/>
</svg>
