<svg width="144" height="45" viewBox="0 0 144 45" fill="none" xmlns="http://www.w3.org/2000/svg">
<path d="M24.4866 16.1916H16.271L6.40166 27.8153V0.0703125H0V44.2287H6.40166V29.9181H6.50851L16.6978 44.2287H25.1803L13.4971 28.9252L24.4866 16.1916Z" fill="black"/>
<path d="M50.9288 19.521C49.6839 18.236 48.2077 17.2429 46.5009 16.5419C44.7938 15.8411 42.98 15.4905 41.0593 15.4905C39.1389 15.4905 37.3251 15.8411 35.618 16.5419C33.9109 17.2429 32.4347 18.236 31.1901 19.521C29.9451 20.806 28.9583 22.354 28.2292 24.1647C27.5001 25.9754 27.1355 27.9905 27.1355 30.2103C27.1355 32.4297 27.5 34.445 28.2292 36.2558C28.9583 38.0665 29.9451 39.6143 31.1901 40.8995C32.4347 42.1844 33.9109 43.1777 35.618 43.8783C37.3251 44.5793 39.1389 44.9298 41.0593 44.9298C42.98 44.9298 44.7938 44.5793 46.5009 43.8783C48.2079 43.1777 49.6839 42.1844 50.9288 40.8995C52.1737 39.6143 53.1605 38.0665 53.8894 36.2558C54.6185 34.445 54.9832 32.4299 54.9832 30.2103C54.9832 27.9906 54.6186 25.9754 53.8894 24.1647C53.1605 22.354 52.1737 20.806 50.9288 19.521ZM48.0745 33.3644C47.7366 34.3769 47.2386 35.2726 46.581 36.0511C45.9229 36.8301 45.1315 37.4532 44.2069 37.9202C43.2821 38.3877 42.2332 38.6213 41.0594 38.6213C39.8857 38.6213 38.8365 38.3877 37.912 37.9202C36.9874 37.4532 36.196 36.8301 35.5382 36.0511C34.8801 35.2726 34.3823 34.3767 34.0443 33.3644C33.7064 32.352 33.5375 31.3006 33.5375 30.2103C33.5375 29.1199 33.7064 28.0685 34.0443 27.056C34.3823 26.0435 34.8801 25.1479 35.5382 24.3691C36.196 23.5904 36.9874 22.9673 37.912 22.5C38.8367 22.0327 39.8857 21.799 41.0594 21.799C42.2332 21.799 43.2822 22.0327 44.2069 22.5C45.1315 22.9673 45.9229 23.5904 46.581 24.3691C47.2386 25.1479 47.7366 26.0437 48.0745 27.056C48.4125 28.0684 48.5814 29.1199 48.5814 30.2103C48.5814 31.3006 48.4125 32.3519 48.0745 33.3644Z" fill="black"/>
<path d="M74.8102 15.4907C73.103 15.4907 71.5912 15.9385 70.2755 16.8341C68.9594 17.7296 67.946 18.9952 67.2346 20.6309H67.1279V16.1916H60.7262V44.2285H67.1278V29.2171C67.1278 28.8276 67.2078 28.2436 67.3681 27.4648C67.5279 26.6859 67.8482 25.9072 68.3283 25.1282C68.8084 24.3495 69.5019 23.6582 70.4088 23.0546C71.3157 22.451 72.5158 22.1492 74.0098 22.1492C74.5076 22.1492 75.0145 22.198 75.5302 22.2953C76.0458 22.3927 76.5707 22.5193 77.1041 22.6749V15.8993C76.7128 15.7825 76.3305 15.6851 75.957 15.6073C75.5834 15.5294 75.2014 15.4907 74.8102 15.4907Z" fill="black"/>
<path d="M117.804 11.4525C120.089 11.4525 121.94 9.42908 121.94 6.93311C121.94 4.43714 120.089 2.41376 117.804 2.41376C115.52 2.41376 113.668 4.43714 113.668 6.93311C113.668 9.42908 115.52 11.4525 117.804 11.4525Z" fill="black"/>
<path d="M121.132 16.1917H114.731V44.2285H121.132V16.1917Z" fill="black"/>
<path d="M144 22.1494V16.1916H136.958V8.07245H130.556V16.1916H125.275V22.1494H130.556V34.9999C130.556 36.6353 130.672 38.0763 130.903 39.3223C131.134 40.5683 131.561 41.61 132.183 42.4473C132.806 43.2845 133.659 43.9076 134.744 44.3163C135.829 44.7251 137.225 44.9295 138.932 44.9295C139.679 44.9295 140.541 44.8612 141.519 44.725C142.497 44.5887 143.324 44.3454 144 43.9947V38.0955C143.609 38.4069 143.075 38.6308 142.4 38.767C141.724 38.9036 141.101 38.9717 140.532 38.9717C139.11 38.9717 138.159 38.5629 137.679 37.7451C137.198 36.9272 136.958 35.8175 136.958 34.4157V22.1494H144Z" fill="black"/>
<path d="M107.974 24.4276C107.369 22.6362 106.525 21.0787 105.44 19.7547C104.355 18.4308 103.048 17.3892 101.519 16.6298C99.9897 15.8705 98.318 15.4908 96.5043 15.4908C95.295 15.4908 94.2278 15.6271 93.3032 15.8998C92.3786 16.1723 91.5605 16.5228 90.8495 16.9513C90.1381 17.3796 89.5334 17.8371 89.0356 18.324C88.5374 18.8108 88.1287 19.2877 87.8086 19.755H87.6485V0.0703125H81.2468V44.2285H87.3285V40.0232H87.4351C88.3598 41.7367 89.6046 42.9827 91.1694 43.7614C92.7343 44.5404 94.4238 44.9296 96.2375 44.9296C98.1937 44.9296 99.9543 44.5501 101.519 43.7908C103.084 43.0313 104.418 41.9899 105.52 40.6658C106.623 39.3418 107.459 37.7842 108.027 35.9931C108.596 34.2017 108.881 32.2741 108.881 30.2104C108.881 28.1464 108.578 26.2188 107.974 24.4276ZM101.972 33.3643C101.634 34.3768 101.136 35.2726 100.479 36.0511C99.8205 36.8301 99.0291 37.4532 98.1045 37.9202C97.1798 38.3877 96.1308 38.6213 94.9571 38.6213C93.7833 38.6213 92.7341 38.3877 91.8096 37.9202C90.885 37.4532 90.0936 36.8301 89.4358 36.0511C88.7777 35.2726 88.2799 34.3767 87.942 33.3643C87.604 32.352 87.4351 31.3006 87.4351 30.2102C87.4351 29.1199 87.604 28.0685 87.942 27.056C88.2799 26.0435 88.7777 25.1479 89.4358 24.3691C90.0936 23.5904 90.885 22.9673 91.8096 22.5C92.7343 22.0327 93.7833 21.799 94.9571 21.799C96.1308 21.799 97.18 22.0327 98.1045 22.5C99.0289 22.9673 99.8205 23.5904 100.479 24.3691C101.136 25.1479 101.634 26.0436 101.972 27.056C102.31 28.0683 102.479 29.1199 102.479 30.2102C102.479 31.3006 102.31 32.3518 101.972 33.3643Z" fill="black"/>
</svg>
