<svg width="34" height="25" viewBox="0 0 34 25" fill="none" xmlns="http://www.w3.org/2000/svg">
<path d="M33.1129 2.85031C31.8952 3.33198 30.5871 3.65743 29.2119 3.80453C30.6308 3.04661 31.6924 1.85374 32.1985 0.448494C30.8654 1.15536 29.4063 1.65291 27.8848 1.91953C26.8616 0.944304 25.5063 0.29791 24.0294 0.0807017C22.5525 -0.136506 21.0366 0.087624 19.717 0.718295C18.3974 1.34897 17.348 2.35089 16.7317 3.56852C16.1154 4.78615 15.9666 6.15135 16.3085 7.45217C13.6073 7.3311 10.9647 6.70435 8.55229 5.61261C6.1399 4.52086 4.01164 2.98851 2.30562 1.11502C1.72229 2.01326 1.38688 3.0547 1.38688 4.16383C1.38622 5.1623 1.66167 6.14548 2.18878 7.02614C2.71589 7.90679 3.47836 8.65769 4.40854 9.21221C3.32978 9.18157 2.27481 8.92136 1.33146 8.45326V8.53136C1.33135 9.93176 1.87401 11.2891 2.86735 12.373C3.86069 13.4569 5.24354 14.2006 6.78125 14.478C5.78052 14.7197 4.73133 14.7554 3.71292 14.5821C4.14677 15.7871 4.99187 16.8408 6.12991 17.5957C7.26795 18.3506 8.64196 18.7689 10.0596 18.7921C7.65309 20.4785 4.68109 21.3933 1.62167 21.3892C1.07972 21.3894 0.538236 21.3611 0 21.3046C3.10549 23.087 6.7205 24.033 10.4125 24.0293C22.9104 24.0293 29.7427 14.7891 29.7427 6.77524C29.7427 6.51488 29.7354 6.25191 29.7223 5.99155C31.0513 5.13364 32.1984 4.07127 33.11 2.85422L33.1129 2.85031Z" fill="#EEEEEE"/>
</svg>
